<?xml version="1.0" encoding="UTF-8"?>
<!DOCTYPE svg PUBLIC "-//W3C//DTD SVG 1.1//EN" "http://www.w3.org/Graphics/SVG/1.1/DTD/svg11.dtd">
<!-- Creator: CorelDRAW X7 -->
<svg xmlns="http://www.w3.org/2000/svg" xml:space="preserve" width="8.26772in" height="11.6929in" version="1.1" style="shape-rendering:geometricPrecision; text-rendering:geometricPrecision; image-rendering:optimizeQuality; fill-rule:evenodd; clip-rule:evenodd"
viewBox="0 0 8268 11693"
 xmlns:xlink="http://www.w3.org/1999/xlink">
 <defs>
  <style type="text/css">
   <![CDATA[
    .fil0 {fill:#2C2C2B}
   ]]>
  </style>
 </defs>
 <g id="Layer_x0020_1">
  <metadata id="CorelCorpID_0Corel-Layer"/>
  <g id="_552934040">
   <path class="fil0" d="M3977 6004c6,35 40,59 83,57 49,-1 83,-5 133,0 46,4 86,-4 97,-44 13,-48 -22,-74 -44,-91 -21,-17 -46,-58 -61,-82 -20,-32 -67,-37 -92,-6 -5,6 -10,15 -15,22 -35,53 -75,68 -90,88 -10,14 -15,34 -11,56z"/>
   <path class="fil0" d="M4204 5633c-17,5 -28,16 -37,31 -36,63 -14,146 36,132 69,-20 71,-185 1,-163z"/>
   <path class="fil0" d="M3925 5733c-65,28 4,180 66,154 34,-14 28,-69 13,-100 -10,-22 -42,-70 -79,-54z"/>
   <path class="fil0" d="M4040 5636c-16,7 -23,21 -26,41 -12,66 36,137 77,117 60,-30 15,-190 -51,-158z"/>
   <path class="fil0" d="M4317 5733c-80,30 -87,179 -11,154 27,-9 52,-45 60,-77 9,-38 -2,-94 -49,-77z"/>
  </g>
 </g>
</svg>
